<?xml version="1.0"?>
<svg xmlns="http://www.w3.org/2000/svg" viewBox="0 0 30 30">
    <path style="line-height:normal;text-indent:0;text-align:start;text-decoration-line:none;text-decoration-style:solid;text-decoration-color:#000;text-transform:none;block-progression:tb;isolation:auto;mix-blend-mode:normal" d="M 13 2 C 12.448 2 12 2.448 12 3 L 12 7.5527344 L 9.84375 11.466797 A 1.0001 1.0001 0 0 0 9 11 L 3 11 A 1.0001 1.0001 0 0 0 2.0019531 12.070312 L 3.0019531 26.070312 A 1.0001 1.0001 0 0 0 4 27 L 9 27 A 1.0001 1.0001 0 0 0 10 26 L 11.648438 26 C 12.003866 26.604211 12.637479 27 13.353516 27 L 23 27 A 2 2 0 0 0 25 25 A 2 2 0 0 0 24.722656 23.988281 A 2.5 2.5 0 0 0 27 21.5 A 2.5 2.5 0 0 0 26.367188 19.841797 A 2.5 2.5 0 0 0 28 17.5 A 2.5 2.5 0 0 0 26.996094 15.5 A 2.5 2.5 0 0 0 28 13.5 A 2.5 2.5 0 0 0 25.5 11 L 16.507812 11 C 16.769001 9.8338218 17 8.5902233 17 8 C 17 5.709 15.186078 2 13.955078 2 L 13 2 z M 4.0742188 13 L 8 13 L 8 25 L 4.9316406 25 L 4.0742188 13 z" font-weight="400" font-family="sans-serif" white-space="normal" overflow="visible"/>
</svg>